<?xml version="1.0" encoding="utf-8"?>
<!-- Generator: Adobe Illustrator 16.0.0, SVG Export Plug-In . SVG Version: 6.00 Build 0)  -->
<!DOCTYPE svg PUBLIC "-//W3C//DTD SVG 1.1//EN" "http://www.w3.org/Graphics/SVG/1.1/DTD/svg11.dtd">
<svg version="1.1" id="Layer_1" xmlns="http://www.w3.org/2000/svg" xmlns:xlink="http://www.w3.org/1999/xlink" x="0px" y="0px"
	 width="150px" height="50px" viewBox="0 0 150 50" enable-background="new 0 0 150 50" xml:space="preserve">
<g>
	<g>
		<polygon fill="#023F88" points="28.691,36.345 28.691,13.39 34.066,13.39 34.066,22.056 38.366,22.056 38.366,13.39 43.625,13.39 
			43.625,36.345 38.366,36.345 38.366,26.802 34.066,26.802 34.066,36.345 		"/>
		<polygon fill="#023F88" points="47.286,36.395 47.286,13.439 59.772,13.439 59.772,17.889 52.628,17.889 52.628,22.105 
			59.226,22.105 59.226,26.72 52.628,26.72 52.628,31.715 59.772,31.715 59.772,36.395 		"/>
		<path fill="#023F88" d="M70.542,13.456c0.662,0.034,1.274,0.083,1.819,0.166c1.042,0.132,1.968,0.43,2.778,0.876
			c0.81,0.447,1.439,1.142,1.918,2.051c0.463,0.91,0.711,2.134,0.744,3.639c0,1.902-0.413,3.506-1.257,4.796
			c-0.827,1.29-2.084,2.084-3.754,2.382c-0.579,0.083-1.323,0.148-2.25,0.182v-4.383c0.463-0.099,0.86-0.313,1.174-0.645
			c0.347-0.348,0.546-0.86,0.645-1.538c0.05-0.413,0.066-0.694,0.066-0.894c0-1.025-0.298-1.703-0.893-2.034
			c-0.265-0.132-0.595-0.248-0.992-0.33V13.456z M63.249,36.361V13.406h5.292c0.71,0,1.389,0.017,2.001,0.05v4.268
			c-0.512-0.1-1.141-0.166-1.886-0.166v5.739c0.762,0,1.357-0.05,1.836-0.133h0.05v4.383c-0.562,0.017-1.19,0.017-1.886,0.017v8.798
			H63.249z"/>
		<path fill="#023F88" d="M82.011,13.423c0.182,0,0.38,0.033,0.579,0.067c0.496,0.099,0.876,0.347,1.141,0.744
			c0.248,0.396,0.414,0.843,0.479,1.339c0.066,0.496,0.099,1.042,0.099,1.638c0,0.513-0.017,0.992-0.065,1.405
			c-0.05,0.414-0.148,0.811-0.298,1.175c-0.148,0.347-0.38,0.645-0.694,0.859c-0.314,0.231-0.728,0.348-1.24,0.348l0,0v-0.711
			c0.348,0,0.629-0.1,0.827-0.266c0.198-0.182,0.347-0.396,0.43-0.678c0.082-0.265,0.148-0.513,0.148-0.744
			c0.017-0.248,0.033-0.611,0.05-1.107c0.017-0.265,0.017-0.496,0.017-0.729c0-1.554-0.348-2.414-1.075-2.563
			c-0.148-0.033-0.281-0.05-0.396-0.05V13.423z M79.679,17.211c0-0.695,0.066-1.323,0.182-1.886c0.1-0.546,0.331-1.009,0.661-1.356
			c0.332-0.363,0.795-0.546,1.406-0.546c0.033,0,0.05,0,0.083,0v0.729h-0.033c-0.447,0-0.777,0.148-0.992,0.463
			c-0.215,0.331-0.347,0.694-0.397,1.108c-0.05,0.413-0.066,0.909-0.066,1.488c0,0.363,0.017,0.661,0.017,0.926
			c0.017,0.265,0.05,0.529,0.101,0.794c0.049,0.265,0.115,0.513,0.215,0.694c0.23,0.447,0.611,0.662,1.141,0.662h0.017v0.711
			c-0.513,0-0.909-0.116-1.224-0.331c-0.331-0.231-0.563-0.513-0.712-0.876c-0.165-0.381-0.264-0.761-0.313-1.175
			C79.712,18.187,79.695,17.724,79.679,17.211z"/>
		<path fill="#023F88" d="M87.501,13.605c0.431,0.017,0.794,0.083,1.108,0.198c0.347,0.132,0.595,0.397,0.777,0.794
			c0.132,0.281,0.198,0.612,0.198,1.009c0,0.182-0.017,0.381-0.05,0.596c-0.099,0.546-0.348,0.942-0.744,1.207
			c-0.347,0.231-0.794,0.363-1.29,0.381v-0.729c0.81-0.065,1.224-0.546,1.24-1.422c0-0.479-0.132-0.827-0.364-1.025
			c-0.214-0.165-0.495-0.265-0.876-0.298V13.605z M85.45,20.832v-7.227h1.853c0.065,0,0.133,0,0.198,0v0.711
			c-0.065,0-0.149-0.017-0.231-0.017h-1.009v2.762h1.059c0.065,0,0.116,0,0.182,0v0.729c-0.049,0-0.116,0-0.165,0h-1.075v3.042
			H85.45z"/>
		<polygon fill="#023F88" points="90.544,20.805 90.544,13.616 94.148,13.616 94.132,14.339 91.338,14.339 91.338,16.671 
			93.935,16.671 93.935,17.398 91.338,17.398 91.338,20.044 94.148,20.044 94.148,20.805 		"/>
		<path fill="#023F88" d="M97.341,13.605c0.679,0.017,1.19,0.148,1.555,0.414c0.364,0.28,0.563,0.76,0.596,1.455
			c0,0.909-0.446,1.505-1.356,1.753c0.314,0.05,0.546,0.132,0.711,0.231c0.182,0.099,0.298,0.248,0.397,0.43
			c0.083,0.182,0.132,0.446,0.165,0.761c0.017,0.132,0.017,0.314,0.033,0.579s0.033,0.479,0.05,0.645
			c0.017,0.166,0.033,0.331,0.083,0.496c0.032,0.149,0.115,0.298,0.265,0.463h-0.993c-0.082-0.165-0.132-0.363-0.165-0.578
			c-0.017-0.215-0.05-0.513-0.05-0.86c-0.016-0.348-0.033-0.612-0.066-0.761c-0.065-0.413-0.214-0.678-0.463-0.811
			c-0.182-0.099-0.446-0.165-0.761-0.198v-0.711c0.166-0.017,0.298-0.05,0.431-0.083c0.215-0.05,0.396-0.148,0.546-0.314
			c0.148-0.148,0.247-0.363,0.298-0.645c0.016-0.115,0.032-0.231,0.032-0.363c0-0.298-0.065-0.546-0.215-0.745
			c-0.132-0.182-0.314-0.298-0.513-0.363c-0.166-0.05-0.364-0.066-0.579-0.083V13.605z M95.241,20.832v-7.227h2.034h0.065v0.711
			c-0.049,0-0.115,0-0.165,0h-1.142v2.597h0.977c0.116,0,0.231,0,0.33,0v0.711c-0.082,0-0.182,0-0.281,0h-1.025v3.208H95.241z"/>
		<path fill="#023F88" d="M102.848,13.605h0.497l2.001,7.227h-0.811l-0.546-2.083h-1.142v-0.728h0.96l-0.96-3.787V13.605z
			 M100.351,20.832l1.969-7.227h0.528v0.629l0,0l-0.959,3.787h0.959v0.728h-1.141l-0.529,2.083H100.351z"/>
		<polygon fill="#023F88" points="107.479,20.832 107.479,14.35 105.627,14.35 105.627,13.605 110.026,13.605 110.026,14.35 
			108.306,14.35 108.306,20.832 		"/>
		<path fill="#023F88" d="M112.986,13.423c0.182,0,0.38,0.033,0.578,0.067c0.496,0.099,0.877,0.347,1.142,0.744
			c0.248,0.396,0.413,0.843,0.479,1.339s0.099,1.042,0.099,1.638c0,0.513-0.016,0.992-0.065,1.405
			c-0.05,0.414-0.149,0.811-0.298,1.175c-0.148,0.347-0.381,0.645-0.694,0.859c-0.314,0.231-0.729,0.348-1.225,0.348h-0.016v-0.711
			c0.347,0,0.628-0.1,0.826-0.266c0.199-0.182,0.348-0.396,0.431-0.678c0.099-0.265,0.148-0.513,0.165-0.744
			c0.017-0.248,0.017-0.611,0.033-1.107c0.017-0.265,0.017-0.496,0.017-0.729c0-1.554-0.348-2.414-1.075-2.563
			c-0.148-0.033-0.281-0.05-0.396-0.05V13.423z M110.654,17.211c0-0.695,0.066-1.323,0.182-1.886c0.1-0.546,0.331-1.009,0.662-1.356
			c0.331-0.363,0.793-0.546,1.405-0.546c0.033,0,0.05,0,0.083,0v0.729h-0.033c-0.447,0-0.777,0.148-0.992,0.463
			c-0.215,0.331-0.348,0.694-0.397,1.108c-0.05,0.413-0.065,0.909-0.065,1.488c0,0.363,0.016,0.661,0.016,0.926
			c0.017,0.265,0.05,0.529,0.1,0.794c0.049,0.265,0.116,0.513,0.216,0.694c0.247,0.447,0.628,0.662,1.141,0.662h0.017v0.711
			c-0.514,0-0.91-0.116-1.224-0.331c-0.331-0.231-0.563-0.513-0.712-0.876c-0.165-0.381-0.264-0.761-0.314-1.175
			C110.688,18.187,110.67,17.724,110.654,17.211z"/>
		<path fill="#023F88" d="M118.526,13.605c0.678,0.017,1.19,0.148,1.555,0.414c0.364,0.28,0.562,0.76,0.595,1.455
			c0,0.909-0.463,1.505-1.356,1.753c0.315,0.05,0.547,0.132,0.712,0.231c0.182,0.099,0.297,0.248,0.381,0.43
			c0.1,0.182,0.148,0.446,0.182,0.761c0.017,0.132,0.017,0.314,0.033,0.579c0.016,0.265,0.032,0.479,0.049,0.645
			c0.017,0.166,0.033,0.331,0.083,0.496c0.033,0.149,0.116,0.298,0.265,0.463h-0.992c-0.083-0.165-0.132-0.363-0.165-0.578
			s-0.05-0.513-0.05-0.86c-0.017-0.348-0.05-0.612-0.066-0.761c-0.066-0.413-0.231-0.678-0.463-0.811
			c-0.198-0.099-0.447-0.165-0.761-0.198v-0.711c0.149-0.017,0.297-0.05,0.43-0.083c0.215-0.05,0.396-0.148,0.546-0.314
			c0.149-0.148,0.248-0.363,0.298-0.645c0.017-0.115,0.033-0.231,0.033-0.363c0-0.298-0.066-0.546-0.215-0.745
			c-0.133-0.182-0.315-0.298-0.513-0.363c-0.166-0.05-0.364-0.066-0.579-0.083V13.605z M116.426,20.832v-7.227h2.034h0.066v0.711
			c-0.05,0-0.116,0-0.166,0h-1.141v2.597h0.976c0.116,0,0.231,0,0.331,0v0.711c-0.083,0-0.183,0-0.281,0h-1.025v3.208H116.426z"/>
		<path fill="#023F88" d="M82.354,21.527c0.43,0.018,0.776,0.116,1.075,0.281c0.313,0.198,0.562,0.446,0.727,0.761
			c0.183,0.298,0.299,0.662,0.364,1.059c0.05,0.381,0.083,0.827,0.083,1.323c0,0.446-0.017,0.859-0.05,1.225
			c-0.033,0.363-0.115,0.711-0.231,1.074c-0.133,0.348-0.298,0.645-0.546,0.91c-0.215,0.248-0.463,0.413-0.728,0.479
			c-0.198,0.05-0.43,0.083-0.694,0.1v-0.694c0.248-0.032,0.43-0.065,0.562-0.132c0.53-0.282,0.794-1.093,0.794-2.448V24.77
			c0-0.397-0.017-0.761-0.066-1.075c-0.032-0.314-0.132-0.579-0.247-0.827c-0.117-0.182-0.232-0.314-0.381-0.396
			c-0.132-0.1-0.281-0.166-0.446-0.199c-0.066,0-0.149-0.017-0.215-0.032V21.527z M80.171,28.755v-7.228h2.051
			c0.033,0,0.083,0,0.133,0v0.712c-0.116,0-0.232-0.017-0.364-0.017h-1.009v5.821h1.042c0.115,0,0.231,0,0.331,0v0.694
			c-0.1,0.017-0.216,0.017-0.314,0.017H80.171z"/>
		<rect x="85.761" y="21.527" fill="#023F88" width="0.827" height="7.228"/>
		<path fill="#023F88" d="M87.713,26.456h0.776c0,0.314,0.017,0.579,0.05,0.777c0.033,0.215,0.116,0.396,0.248,0.563
			c0.248,0.265,0.596,0.413,1.042,0.413c0.066,0,0.182-0.016,0.348-0.049c0.313-0.066,0.546-0.231,0.711-0.48
			c0.148-0.248,0.231-0.545,0.231-0.877c0-0.264-0.066-0.479-0.166-0.644c-0.099-0.166-0.23-0.299-0.396-0.382
			c-0.165-0.082-0.396-0.182-0.694-0.297c-0.182-0.066-0.43-0.165-0.711-0.265c-0.281-0.116-0.513-0.231-0.694-0.364
			c-0.166-0.115-0.314-0.281-0.431-0.479c-0.1-0.215-0.165-0.463-0.198-0.793c0-0.033,0-0.1,0-0.199c0-0.43,0.099-0.827,0.297-1.19
			c0.199-0.348,0.514-0.596,0.894-0.728c0.232-0.083,0.479-0.116,0.761-0.116c0.298,0,0.579,0.05,0.86,0.166
			c0.265,0.099,0.479,0.264,0.661,0.479c0.248,0.33,0.364,0.794,0.364,1.405H90.92c0-0.596-0.148-0.976-0.479-1.174
			c-0.198-0.116-0.414-0.182-0.679-0.182c-0.231,0-0.413,0.049-0.578,0.132c-0.216,0.099-0.364,0.231-0.463,0.43
			c-0.1,0.183-0.149,0.397-0.149,0.612c0,0.049,0,0.132,0.017,0.265c0.033,0.182,0.083,0.348,0.165,0.463
			c0.083,0.132,0.183,0.231,0.314,0.314c0.116,0.082,0.265,0.148,0.43,0.215c0.166,0.066,0.331,0.115,0.496,0.182
			c0.397,0.149,0.695,0.248,0.877,0.348c0.198,0.065,0.381,0.182,0.529,0.331c0.165,0.132,0.281,0.313,0.363,0.528
			c0.1,0.232,0.133,0.514,0.133,0.86c0,0.447-0.083,0.844-0.265,1.208c-0.182,0.363-0.463,0.628-0.844,0.776
			c-0.314,0.148-0.678,0.216-1.059,0.216c-0.545,0-0.992-0.149-1.339-0.431c-0.447-0.363-0.678-0.959-0.678-1.803V26.456z"/>
		<polygon fill="#023F88" points="94.36,28.755 94.36,22.271 92.508,22.271 92.508,21.527 96.907,21.527 96.907,22.271 
			95.171,22.271 95.171,28.755 		"/>
		<path fill="#023F88" d="M99.769,21.527c0.678,0.018,1.19,0.149,1.555,0.414c0.363,0.281,0.563,0.761,0.579,1.455
			c0,0.91-0.447,1.505-1.34,1.753c0.298,0.05,0.546,0.133,0.711,0.232c0.165,0.099,0.298,0.247,0.38,0.429
			c0.083,0.183,0.149,0.447,0.183,0.762c0,0.132,0.017,0.314,0.033,0.579s0.017,0.479,0.033,0.645s0.05,0.331,0.082,0.496
			c0.033,0.149,0.132,0.298,0.281,0.463h-1.009c-0.083-0.165-0.132-0.363-0.148-0.578c-0.033-0.215-0.05-0.514-0.066-0.86
			s-0.033-0.612-0.05-0.761c-0.082-0.413-0.231-0.679-0.463-0.811c-0.198-0.1-0.446-0.165-0.761-0.198v-0.712
			c0.148-0.016,0.298-0.049,0.43-0.082c0.215-0.05,0.397-0.149,0.546-0.314c0.149-0.148,0.248-0.364,0.298-0.645
			c0.017-0.116,0.033-0.232,0.033-0.364c0-0.298-0.083-0.546-0.231-0.744c-0.133-0.182-0.298-0.298-0.496-0.364
			c-0.166-0.05-0.364-0.066-0.579-0.082V21.527z M97.685,28.755v-7.228h2.018h0.066v0.712c-0.066,0-0.116,0-0.183,0h-1.124v2.596
			h0.976c0.115,0,0.215,0,0.331,0v0.712c-0.1,0-0.183,0-0.281,0h-1.025v3.208H97.685z"/>
		<rect x="103.274" y="21.527" fill="#023F88" width="0.827" height="7.228"/>
		<path fill="#023F88" d="M107.376,21.527c0.381,0.018,0.711,0.066,0.976,0.183c0.281,0.115,0.496,0.313,0.646,0.579
			c0.132,0.264,0.215,0.611,0.215,1.041c0,0.844-0.348,1.373-1.009,1.588c0.827,0.198,1.256,0.761,1.256,1.703
			c0,0.166-0.017,0.349-0.05,0.58c-0.099,0.495-0.33,0.876-0.693,1.157c-0.381,0.248-0.827,0.38-1.34,0.396v-0.728
			c0.794-0.049,1.19-0.446,1.207-1.225c0-0.347-0.05-0.61-0.133-0.826c-0.082-0.215-0.198-0.364-0.347-0.479
			c-0.149-0.1-0.33-0.165-0.529-0.198c-0.05,0-0.132-0.017-0.198-0.017v-0.695c0.265-0.032,0.463-0.115,0.628-0.215
			c0.248-0.165,0.381-0.496,0.381-0.992s-0.133-0.827-0.381-0.976c-0.165-0.115-0.38-0.182-0.628-0.215V21.527z M105.391,28.755
			v-7.228h1.886c0.033,0,0.066,0,0.1,0v0.662c-0.149-0.017-0.298-0.033-0.463-0.033c-0.083,0-0.198,0.017-0.364,0.017
			c-0.165,0-0.298,0-0.38,0v2.431c0.082,0,0.215,0,0.38,0c0.166,0,0.281,0.017,0.364,0.017c0.165,0,0.313-0.017,0.463-0.033v0.695
			c-0.166-0.017-0.331-0.033-0.529-0.033c-0.083,0-0.182,0-0.331,0.017c-0.148,0-0.265,0-0.347,0v2.778h1.025
			c0.065,0,0.115,0,0.182-0.017v0.728h-0.033H105.391z"/>
		<path fill="#023F88" d="M110.602,21.527h0.793v4.862c0,0.348,0.033,0.629,0.066,0.877c0.05,0.231,0.148,0.446,0.314,0.612
			c0.165,0.165,0.396,0.281,0.711,0.298c0.05,0.017,0.115,0.017,0.198,0.017c0.231,0,0.463-0.05,0.661-0.149
			c0.216-0.115,0.364-0.265,0.479-0.463c0.1-0.165,0.166-0.331,0.183-0.513s0.032-0.414,0.032-0.679v-4.862h0.795v4.714
			c0,0.348-0.017,0.628-0.033,0.844c-0.017,0.215-0.066,0.446-0.149,0.661c-0.099,0.232-0.215,0.414-0.396,0.596
			c-0.397,0.38-0.91,0.563-1.588,0.563c-0.348,0-0.678-0.066-0.992-0.183c-0.298-0.115-0.546-0.297-0.744-0.562
			c-0.132-0.182-0.231-0.414-0.265-0.662c-0.05-0.248-0.065-0.528-0.065-0.877v-0.38V21.527z"/>
		<path fill="#023F88" d="M119.531,26.109h0.794c0,0.463-0.066,0.893-0.183,1.307c-0.132,0.396-0.33,0.744-0.611,1.009
			c-0.281,0.28-0.661,0.429-1.125,0.463c-0.049,0.017-0.132,0.017-0.248,0.017c-0.413,0-0.76-0.1-1.042-0.281
			c-0.28-0.182-0.496-0.43-0.661-0.729c-0.165-0.313-0.281-0.645-0.348-1.025c-0.065-0.38-0.115-0.776-0.132-1.19
			c0-0.148,0-0.363,0-0.678c0-0.479,0.017-0.942,0.083-1.356c0.049-0.413,0.165-0.794,0.331-1.141
			c0.148-0.348,0.38-0.629,0.677-0.844c0.299-0.215,0.662-0.314,1.125-0.314c0.133,0,0.314,0.017,0.529,0.05
			c0.514,0.083,0.893,0.331,1.157,0.744s0.397,0.927,0.397,1.505h-0.777c0-0.43-0.099-0.811-0.314-1.107
			c-0.231-0.314-0.546-0.464-0.976-0.464c-0.33,0-0.611,0.1-0.793,0.314c-0.199,0.215-0.349,0.496-0.431,0.827
			c-0.066,0.331-0.115,0.628-0.132,0.893c-0.017,0.281-0.017,0.646-0.017,1.108c0,0.811,0.082,1.505,0.28,2.084
			c0.183,0.562,0.612,0.86,1.274,0.86c0.413-0.033,0.711-0.248,0.876-0.629C119.449,27.135,119.531,26.654,119.531,26.109z"/>
		<rect x="121.532" y="21.527" fill="#023F88" width="0.844" height="7.228"/>
		<path fill="#023F88" d="M123.17,26.522h0.776c0,0.033,0,0.132,0,0.265c-0.017,0.133-0.017,0.231-0.017,0.298
			c0,0.562,0.149,0.927,0.431,1.075c0.115,0.049,0.248,0.082,0.413,0.082c0.248,0,0.431-0.065,0.579-0.215
			c0.198-0.198,0.281-0.529,0.281-0.992c0-0.065,0-0.133,0-0.232c0-0.099,0-0.165,0-0.214v-5.062h0.777v5.607
			c0,0.578-0.132,1.009-0.414,1.307c-0.265,0.313-0.661,0.463-1.19,0.463c-0.115,0-0.198,0-0.265-0.017
			c-0.313-0.017-0.596-0.116-0.826-0.314c-0.248-0.182-0.397-0.43-0.463-0.712C123.203,27.564,123.17,27.118,123.17,26.522z"/>
		<path fill="#023F88" d="M127.535,26.456h0.777c0,0.314,0.017,0.579,0.05,0.777c0.033,0.215,0.116,0.396,0.248,0.563
			c0.248,0.265,0.596,0.413,1.025,0.413c0.082,0,0.198-0.016,0.364-0.049c0.313-0.066,0.546-0.231,0.694-0.48
			c0.165-0.248,0.248-0.545,0.248-0.877c-0.017-0.264-0.065-0.479-0.165-0.644c-0.1-0.166-0.231-0.299-0.397-0.382
			c-0.165-0.082-0.396-0.182-0.694-0.297c-0.182-0.066-0.43-0.165-0.711-0.265c-0.298-0.116-0.513-0.231-0.695-0.364
			c-0.181-0.115-0.314-0.281-0.43-0.479c-0.099-0.215-0.165-0.463-0.198-0.793c0-0.033,0-0.1,0-0.199c0-0.43,0.1-0.827,0.298-1.19
			c0.198-0.348,0.496-0.596,0.893-0.728c0.232-0.083,0.48-0.116,0.744-0.116c0.314,0,0.596,0.05,0.86,0.166
			c0.281,0.099,0.496,0.264,0.662,0.479c0.247,0.33,0.38,0.794,0.38,1.405h-0.744c0-0.596-0.149-0.976-0.479-1.174
			c-0.198-0.116-0.431-0.182-0.679-0.182c-0.231,0-0.43,0.049-0.595,0.132c-0.199,0.099-0.348,0.231-0.446,0.43
			c-0.1,0.183-0.149,0.397-0.149,0.612c0,0.049,0,0.132,0.017,0.265c0.033,0.182,0.083,0.348,0.165,0.463
			c0.083,0.132,0.182,0.231,0.314,0.314c0.116,0.082,0.265,0.148,0.431,0.215c0.165,0.066,0.33,0.115,0.479,0.182
			c0.414,0.149,0.712,0.248,0.894,0.348c0.198,0.065,0.364,0.182,0.529,0.331c0.165,0.132,0.281,0.313,0.363,0.528
			c0.083,0.232,0.133,0.514,0.133,0.86c0,0.447-0.083,0.844-0.265,1.208c-0.182,0.363-0.463,0.628-0.844,0.776
			c-0.313,0.148-0.678,0.216-1.058,0.216c-0.546,0-0.993-0.149-1.356-0.431c-0.431-0.363-0.662-0.959-0.662-1.803V26.456z"/>
		<polygon fill="#023F88" points="132.844,28.755 132.844,21.527 133.638,21.527 133.638,25.001 136.251,21.527 137.178,21.527 
			134.929,24.455 137.343,28.755 136.367,28.755 134.398,25.149 133.638,26.143 133.638,28.755 		"/>
		<path fill="#023F88" d="M140.22,21.346c0.183,0,0.381,0.033,0.579,0.066c0.513,0.1,0.877,0.348,1.142,0.744
			c0.248,0.396,0.413,0.844,0.479,1.34c0.065,0.496,0.1,1.042,0.1,1.637c0,0.513-0.018,0.993-0.066,1.406
			c-0.05,0.414-0.149,0.811-0.298,1.174c-0.149,0.348-0.381,0.646-0.695,0.86c-0.313,0.231-0.727,0.348-1.224,0.348h-0.017v-0.712
			c0.348,0,0.629-0.099,0.827-0.264c0.215-0.183,0.347-0.397,0.446-0.679c0.083-0.265,0.133-0.513,0.149-0.744
			c0.017-0.248,0.033-0.612,0.033-1.108c0.017-0.265,0.033-0.496,0.033-0.728c0-1.555-0.364-2.415-1.075-2.563
			c-0.166-0.033-0.298-0.05-0.414-0.05V21.346z M137.905,25.133c0-0.694,0.05-1.323,0.165-1.885
			c0.115-0.546,0.331-1.009,0.661-1.356c0.331-0.364,0.811-0.546,1.406-0.546c0.033,0,0.049,0,0.082,0v0.728h-0.033
			c-0.429,0-0.76,0.149-0.976,0.464c-0.215,0.33-0.347,0.694-0.396,1.107c-0.05,0.414-0.083,0.91-0.083,1.488
			c0,0.364,0.017,0.661,0.033,0.927c0,0.265,0.033,0.529,0.083,0.793c0.05,0.266,0.115,0.514,0.231,0.695
			c0.231,0.447,0.612,0.661,1.141,0.661l0,0v0.712c-0.495,0-0.909-0.116-1.224-0.331c-0.314-0.231-0.563-0.513-0.711-0.877
			c-0.165-0.38-0.265-0.76-0.314-1.174C137.922,26.109,137.905,25.646,137.905,25.133z"/>
		<path fill="#023F88" d="M147.497,28.755l-0.05-1.009c-0.265,0.777-0.859,1.175-1.786,1.175c-0.446-0.033-0.811-0.166-1.108-0.397
			c-0.281-0.231-0.496-0.528-0.645-0.894c-0.148-0.363-0.248-0.743-0.298-1.157c-0.065-0.413-0.083-0.844-0.083-1.29
			c0-0.05,0-0.133,0-0.231c0-0.1,0-0.165,0-0.198c0.018-0.314,0.034-0.596,0.05-0.844c0.033-0.248,0.066-0.496,0.133-0.761
			c0.066-0.248,0.165-0.496,0.28-0.711c0.133-0.231,0.281-0.431,0.48-0.596c0.363-0.33,0.843-0.496,1.438-0.496
			c0.265,0,0.529,0.033,0.777,0.1c0.314,0.1,0.562,0.248,0.761,0.463c0.215,0.215,0.364,0.479,0.463,0.761
			c0.083,0.298,0.133,0.595,0.133,0.926h-0.795c0-0.446-0.115-0.81-0.363-1.107c-0.231-0.298-0.579-0.446-1.025-0.446
			c-0.38,0.016-0.694,0.148-0.909,0.396s-0.364,0.563-0.446,0.959c-0.1,0.546-0.149,1.125-0.149,1.72c0,0.281,0,0.563,0.033,0.827
			c0.05,1.108,0.348,1.803,0.877,2.084c0.181,0.1,0.396,0.149,0.628,0.149c0.298,0,0.563-0.083,0.794-0.248
			c0.198-0.166,0.348-0.364,0.446-0.596s0.165-0.48,0.182-0.729c0.017-0.23,0.033-0.528,0.033-0.893h-1.637v-0.728h2.414v3.771
			H147.497z"/>
		<path fill="#023F88" d="M79.956,34.146h0.777c0,0.313,0.017,0.579,0.05,0.777c0.033,0.215,0.115,0.396,0.248,0.562
			c0.248,0.266,0.596,0.414,1.025,0.414c0.082,0,0.198-0.017,0.364-0.05c0.297-0.065,0.545-0.231,0.694-0.479
			c0.165-0.248,0.248-0.545,0.248-0.877c-0.017-0.264-0.066-0.479-0.166-0.645c-0.099-0.165-0.231-0.298-0.396-0.381
			c-0.165-0.082-0.396-0.182-0.695-0.297c-0.181-0.066-0.429-0.165-0.71-0.265c-0.298-0.115-0.53-0.232-0.695-0.364
			c-0.182-0.116-0.313-0.281-0.43-0.479c-0.1-0.215-0.165-0.463-0.198-0.794c0-0.033,0-0.099,0-0.198
			c0-0.431,0.099-0.827,0.297-1.19c0.199-0.348,0.496-0.596,0.894-0.728c0.231-0.083,0.479-0.116,0.744-0.116
			c0.313,0,0.596,0.05,0.86,0.166c0.265,0.099,0.496,0.264,0.661,0.479c0.248,0.331,0.38,0.794,0.38,1.406h-0.743
			c0-0.596-0.166-0.976-0.48-1.174c-0.198-0.116-0.43-0.183-0.678-0.183c-0.231,0-0.43,0.05-0.595,0.133
			c-0.199,0.1-0.348,0.231-0.447,0.43c-0.1,0.182-0.148,0.396-0.148,0.612c0,0.05,0,0.132,0.017,0.265
			c0.032,0.182,0.082,0.347,0.165,0.463c0.083,0.133,0.182,0.231,0.314,0.314c0.116,0.082,0.265,0.148,0.43,0.215
			c0.166,0.066,0.331,0.115,0.479,0.182c0.414,0.148,0.711,0.248,0.894,0.347c0.198,0.067,0.363,0.183,0.529,0.331
			c0.165,0.133,0.28,0.314,0.363,0.529c0.083,0.232,0.133,0.513,0.133,0.86c0,0.446-0.1,0.843-0.265,1.207
			c-0.183,0.364-0.463,0.629-0.844,0.777c-0.314,0.148-0.678,0.215-1.059,0.215c-0.545,0-0.992-0.149-1.356-0.43
			c-0.43-0.363-0.661-0.959-0.661-1.803V34.146z"/>
		<path fill="#023F88" d="M85.265,29.218h0.811v4.862c0,0.347,0.017,0.629,0.065,0.877c0.05,0.231,0.15,0.446,0.299,0.611
			c0.165,0.166,0.396,0.281,0.728,0.298c0.032,0.017,0.1,0.017,0.182,0.017c0.248,0,0.463-0.049,0.678-0.148
			c0.199-0.116,0.364-0.266,0.48-0.464c0.099-0.165,0.148-0.33,0.182-0.512c0.017-0.183,0.033-0.414,0.033-0.679v-4.862h0.776v4.714
			c0,0.347,0,0.628-0.017,0.844c-0.032,0.215-0.082,0.446-0.165,0.661c-0.082,0.231-0.215,0.413-0.396,0.595
			c-0.381,0.381-0.91,0.563-1.571,0.563c-0.348,0-0.678-0.066-0.992-0.182c-0.314-0.116-0.563-0.298-0.744-0.563
			c-0.132-0.182-0.231-0.413-0.281-0.661c-0.033-0.248-0.066-0.53-0.066-0.877v-0.38V29.218z"/>
		<path fill="#023F88" d="M90.64,34.146H91.4c0,0.313,0.017,0.579,0.05,0.777c0.033,0.215,0.132,0.396,0.265,0.562
			c0.23,0.266,0.578,0.414,1.024,0.414c0.066,0,0.183-0.017,0.348-0.05c0.314-0.065,0.546-0.231,0.711-0.479
			c0.149-0.248,0.232-0.545,0.232-0.877c0-0.264-0.05-0.479-0.166-0.645c-0.1-0.165-0.231-0.298-0.397-0.381
			c-0.164-0.082-0.396-0.182-0.678-0.297c-0.198-0.066-0.43-0.165-0.727-0.265c-0.282-0.115-0.514-0.232-0.695-0.364
			c-0.165-0.116-0.314-0.281-0.414-0.479c-0.115-0.215-0.182-0.463-0.197-0.794c-0.017-0.033-0.017-0.099-0.017-0.198
			c0-0.431,0.099-0.827,0.297-1.19c0.216-0.348,0.513-0.596,0.909-0.728c0.232-0.083,0.48-0.116,0.745-0.116
			c0.298,0,0.596,0.05,0.86,0.166c0.264,0.099,0.479,0.264,0.661,0.479c0.248,0.331,0.363,0.794,0.363,1.406h-0.728
			c0-0.596-0.165-0.976-0.479-1.174c-0.198-0.116-0.43-0.183-0.694-0.183c-0.215,0-0.414,0.05-0.578,0.133
			c-0.199,0.1-0.349,0.231-0.464,0.43c-0.1,0.182-0.148,0.396-0.148,0.612c0,0.05,0.017,0.132,0.032,0.265
			c0.017,0.182,0.066,0.347,0.166,0.463c0.082,0.133,0.182,0.231,0.297,0.314c0.133,0.082,0.265,0.148,0.447,0.215
			c0.148,0.066,0.313,0.115,0.479,0.182c0.397,0.148,0.694,0.248,0.893,0.347c0.183,0.067,0.364,0.183,0.529,0.331
			c0.149,0.133,0.281,0.314,0.364,0.529c0.083,0.232,0.115,0.513,0.115,0.86c0,0.446-0.082,0.843-0.265,1.207
			c-0.182,0.364-0.463,0.629-0.827,0.777c-0.33,0.148-0.678,0.215-1.058,0.215c-0.562,0-1.009-0.149-1.356-0.43
			c-0.446-0.363-0.661-0.959-0.661-1.803V34.146z"/>
		<polygon fill="#023F88" points="97.271,36.444 97.271,29.963 95.419,29.963 95.419,29.218 99.818,29.218 99.818,29.963 
			98.098,29.963 98.098,36.444 		"/>
		<path fill="#023F88" d="M102.596,29.218h0.497l2.001,7.227h-0.811l-0.545-2.083h-1.143v-0.728h0.96l-0.96-3.787V29.218z
			 M100.1,36.444l1.968-7.227h0.528v0.629h-0.017l-0.959,3.787h0.976v0.728h-1.157l-0.513,2.083H100.1z"/>
		<polygon fill="#023F88" points="107.276,36.444 105.259,29.218 106.136,29.218 107.757,35.437 109.442,29.218 110.236,29.218 
			108.252,36.444 		"/>
		<path fill="#023F88" d="M112.916,29.218h0.496l2.002,7.227h-0.811l-0.547-2.083h-1.141v-0.728h0.959l-0.959-3.787V29.218z
			 M110.419,36.444l1.968-7.227h0.529v0.629l0,0l-0.959,3.787h0.959v0.728h-1.141l-0.53,2.083H110.419z"/>
		<g>
			<rect x="2.106" y="13.423" fill-rule="evenodd" clip-rule="evenodd" fill="#FFFFFF" width="22.641" height="22.955"/>
			<polygon fill-rule="evenodd" clip-rule="evenodd" fill="#ED1C24" points="1.908,13.456 14.278,13.456 10.21,25.115 
				12.955,24.106 8.705,36.411 1.875,36.395 			"/>
			<polygon fill-rule="evenodd" clip-rule="evenodd" fill="#023F88" points="17.454,13.456 24.796,13.439 24.796,36.361 
				12.145,36.361 15.899,25.661 12.84,26.521 			"/>
		</g>
		<g>
			<rect x="1.875" y="13.423" fill-rule="evenodd" clip-rule="evenodd" fill="#FFFFFF" width="22.641" height="22.955"/>
			<polygon fill-rule="evenodd" clip-rule="evenodd" fill="#ED1C24" points="1.908,13.423 14.278,13.423 10.21,25.082 
				12.955,24.073 8.705,36.378 1.875,36.361 			"/>
			<polygon fill-rule="evenodd" clip-rule="evenodd" fill="#023F88" points="17.454,13.456 24.796,13.439 24.796,36.361 
				12.145,36.361 15.899,25.662 12.84,26.521 			"/>
		</g>
	</g>
	<path fill="#023F88" d="M121.495,36.354h-0.492v-0.474c-0.05,0.169-0.151,0.299-0.304,0.395c-0.123,0.079-0.26,0.125-0.406,0.142
		v-0.458c0.164-0.005,0.3-0.056,0.4-0.152c0.103-0.101,0.175-0.225,0.221-0.378c0.045-0.151,0.067-0.305,0.079-0.456
		c0.01-0.153,0.017-0.316,0.017-0.509v-0.226c0-0.299-0.028-0.559-0.091-0.773c-0.062-0.215-0.191-0.354-0.39-0.429
		c-0.084-0.027-0.163-0.045-0.236-0.045v-0.446c0.13,0.018,0.254,0.057,0.361,0.107c0.163,0.079,0.271,0.197,0.315,0.35v-1.647
		h0.525V36.354z M120.293,36.417c-0.033,0-0.067,0-0.102,0c-0.091,0-0.175-0.006-0.243-0.023c-0.626-0.152-0.942-0.817-0.942-1.986
		c0.007-0.479,0.085-0.903,0.237-1.27c0.147-0.366,0.424-0.57,0.824-0.604c0.079,0,0.152,0,0.226,0.011v0.446h-0.006
		c-0.226,0-0.395,0.106-0.502,0.327c-0.113,0.214-0.175,0.468-0.191,0.756c0,0.023,0,0.074-0.006,0.152
		c-0.006,0.079-0.012,0.146-0.012,0.197s0,0.097,0,0.142c0,0.926,0.231,1.394,0.705,1.394h0.012V36.417z"/>
	<rect x="122.415" y="35.667" fill="#023F88" width="0.593" height="0.688"/>
	<path fill="#023F88" d="M125.152,36.004c0.322,0,0.53-0.14,0.621-0.434c0.084-0.293,0.13-0.655,0.13-1.083v-0.152
		c0-0.215-0.012-0.413-0.034-0.587c-0.023-0.182-0.074-0.339-0.158-0.48c-0.084-0.146-0.209-0.237-0.372-0.276
		c-0.063-0.017-0.124-0.023-0.187-0.028v-0.445h0.017c0.113,0,0.22,0.011,0.306,0.027c0.665,0.118,0.992,0.768,0.992,1.942
		c0,0.366-0.033,0.693-0.096,0.976c-0.067,0.288-0.197,0.52-0.389,0.706c-0.198,0.186-0.475,0.275-0.83,0.275V36.004z
		 M124.396,34.487c0,0.271,0.017,0.508,0.039,0.716c0.028,0.209,0.097,0.396,0.209,0.559c0.107,0.164,0.276,0.242,0.508,0.242v0.44
		c-0.355,0-0.632-0.09-0.824-0.275c-0.198-0.187-0.327-0.418-0.389-0.706c-0.068-0.282-0.103-0.609-0.103-0.976
		c0-0.351,0.028-0.661,0.085-0.926c0.051-0.271,0.164-0.497,0.333-0.684c0.221-0.237,0.52-0.355,0.897-0.36v0.445
		c-0.012,0-0.022,0-0.034,0c-0.304,0-0.502,0.152-0.593,0.446C124.441,33.702,124.396,34.063,124.396,34.487z"/>
	<rect x="127.292" y="35.667" fill="#023F88" width="0.592" height="0.688"/>
	<path fill="#023F88" d="M130.028,36.004c0.327,0,0.53-0.14,0.621-0.434c0.085-0.293,0.13-0.655,0.13-1.083v-0.152
		c0-0.215-0.012-0.413-0.034-0.587c-0.022-0.182-0.073-0.339-0.157-0.48c-0.085-0.146-0.21-0.237-0.373-0.276
		c-0.063-0.017-0.125-0.023-0.187-0.028v-0.445h0.018c0.118,0,0.22,0.011,0.31,0.027c0.661,0.118,0.988,0.768,0.988,1.942
		c0,0.366-0.028,0.693-0.097,0.976c-0.067,0.288-0.197,0.52-0.389,0.706c-0.198,0.186-0.474,0.275-0.83,0.275V36.004z
		 M129.277,34.487c0,0.271,0.013,0.508,0.034,0.716c0.028,0.209,0.096,0.396,0.209,0.559c0.112,0.164,0.282,0.242,0.508,0.242v0.44
		c-0.355,0-0.632-0.09-0.824-0.275c-0.192-0.187-0.321-0.418-0.39-0.706c-0.061-0.282-0.096-0.609-0.096-0.976
		c0-0.351,0.022-0.661,0.08-0.926c0.05-0.271,0.163-0.497,0.332-0.684c0.22-0.237,0.52-0.355,0.897-0.36v0.445
		c-0.012,0-0.022,0-0.033,0c-0.306,0-0.502,0.152-0.588,0.446C129.317,33.702,129.277,34.063,129.277,34.487z"/>
	<rect x="132.168" y="35.667" fill="#023F88" width="0.592" height="0.688"/>
</g>
</svg>
